<svg xmlns="http://www.w3.org/2000/svg" viewBox="0 0 32 32" aria-hidden="true" shape-rendering="geometricPrecision">
  <path fill="#FFFFFF" d="M 0.000 28.000 L 0.000 24.000 L 5.125 24.000 L 10.250 24.000 L 9.625 27.125 C 9.281 28.844 9.000 30.644 9.000 31.125 C 9.000 31.606 6.975 32.000 4.500 32.000 L 0.000 32.000 L 0.000 28.000 Z"/>
  <path fill="#FFFFFF" d="M 12.100 30.250 C 12.155 29.288 12.530 27.375 12.934 26.000 C 13.574 23.821 13.725 24.045 14.110 27.750 C 14.424 30.761 14.181 32.000 13.276 32.000 C 12.574 32.000 12.045 31.212 12.100 30.250 Z"/>
  <path fill="#FFFFFF" d="M 17.844 28.250 C 18.205 25.193 18.432 24.869 19.073 26.500 C 20.293 29.602 20.130 32.000 18.701 32.000 C 17.787 32.000 17.533 30.886 17.844 28.250 Z"/>
  <path fill="#FFFFFF" d="M 22.975 29.435 C 21.148 24.629 21.614 24.000 27.000 24.000 L 32.000 24.000 L 32.000 28.000 L 32.000 32.000 L 27.975 32.000 C 24.575 32.000 23.799 31.602 22.975 29.435 Z"/>
  <path fill="#FFFFFF" d="M 0.000 10.500 L 0.000 0.000 L 16.000 0.000 L 32.000 0.000 L 32.000 10.500 C 32.000 16.833 31.603 21.000 31.000 21.000 C 30.404 21.000 30.000 17.167 30.000 11.500 L 30.000 2.000 L 16.000 2.000 L 2.000 2.000 L 2.000 11.500 C 2.000 17.167 1.596 21.000 1.000 21.000 C 0.397 21.000 0.000 16.833 0.000 10.500 Z"/>
  <path fill="#FFFFFF" d="M 5.030 13.250 L 5.000 5.000 L 16.000 5.000 L 27.000 5.000 L 27.000 13.000 L 27.000 21.000 L 20.500 21.000 C 15.389 21.000 14.000 20.679 14.000 19.500 C 14.000 17.278 7.399 17.486 6.080 19.750 C 5.327 21.042 5.053 19.343 5.030 13.250 Z"/>
</svg>